<svg width="136" height="30" viewBox="0 0 136 30" fill="none" xmlns="http://www.w3.org/2000/svg">
<path d="M26.2839 11.3017C26.4605 10.4635 26.3281 8.19182 24.1866 8.08153C21.979 7.94931 19.6831 10.3533 21.2947 17.8299C21.6037 19.2414 21.4271 21.4467 18.6455 21.4467C14.9145 21.4467 14.6718 16.8375 15.9964 15.1171C15.7977 15.2715 14.8924 15.7126 13.1485 15.6685C13.325 15.426 13.6563 14.8966 13.7445 14.6539C12.155 15.6024 10.698 14.6761 10.4773 14.3672C10.8305 14.1909 11.2278 13.9703 11.4707 13.2424C11.1175 13.5512 9.88114 13.8379 8.71115 13.4851C8.46828 13.3968 8.22547 13.3087 8.00469 13.1543C8.77736 12.8013 9.15265 12.272 9.24101 12.0514C8.99801 12.1397 7.67345 12.4485 5.9736 12.4044C5.13473 12.4044 4.56075 12.0956 3.8101 11.9412C3.34651 11.8309 2.9492 11.9192 2.68423 12.1397C2.22065 12.1397 1.00641 12.272 1.22719 13.419C1.38177 12.8235 2.02189 12.8675 2.24274 12.9116C2.24274 12.9116 2.24274 12.9116 2.24274 12.9337C2.08816 13.044 1.95568 13.2424 1.88954 13.4409C1.5583 13.5954 0.41034 14.1686 1.07262 15.1171C1.09471 14.5878 1.5583 14.3672 1.84536 14.3011C1.88954 14.3892 1.93359 14.4997 1.99993 14.5878C1.75706 14.8966 1.31543 15.6243 2.17646 16.1317C2.02189 15.6905 2.30894 15.2715 2.57384 15.0288C2.596 15.1391 2.61796 15.2715 2.68423 15.3818C2.57384 15.6465 2.37508 16.8375 3.4569 16.8153C3.05959 16.6167 3.23612 16.1095 3.32442 15.9332C3.3907 15.9551 3.50109 15.9773 3.58932 15.9773C4.91394 15.9773 4.27369 15.1171 8.15913 14.4775C8.24756 14.4556 8.35789 14.4775 8.42409 14.4775C7.43058 18.5356 10.6759 19.3076 10.6759 20.9396C10.6759 21.5131 10.2564 21.9542 9.48375 21.9542H2.13235V23.6965H25.9528V21.9542H22.0011C23.3037 20.3662 23.2595 18.4915 22.8841 17.3227C20.7869 10.7062 23.0607 8.94173 24.1866 9.11815C25.3787 9.27251 25.5334 10.5518 24.871 11.4781C24.4074 12.1839 24.3412 12.1397 23.988 12.7572C23.5906 13.5292 22.9283 15.3377 24.7386 17.6755C24.7386 15.0288 25.8424 14.3453 26.2397 13.7937C26.6813 13.1984 26.4605 12.6469 26.306 12.3602C26.0852 11.9633 26.2177 11.6545 26.2839 11.3017Z" fill="#A04044"/>
<path d="M9.99156 9.40499C10.2122 9.44893 10.0798 9.55921 9.99156 9.60335C9.17471 10.0666 8.51236 10.0005 8.04878 9.84606C8.22544 10.8826 9.32908 11.3457 10.0798 10.7943C10.7642 10.2871 11.2278 10.3313 11.4264 10.3974C11.581 10.4415 11.6474 10.5518 11.4264 10.596C10.9628 10.6399 10.3448 10.9268 10.0798 11.7206C9.81483 12.5588 9.39549 12.9116 9.17471 12.9557C9.63837 13.0881 10.7421 13.066 11.3602 12.7132C11.7796 12.4927 12.1991 11.7427 12.751 11.7647C12.8395 11.7869 12.8834 11.7869 12.7731 11.9192C12.707 11.9853 12.2654 12.4044 12.133 13.0218C12.0888 13.1984 11.9122 14.0584 11.4706 14.3011C12.729 14.7641 14.3186 14.0364 14.4508 12.2058C14.4729 12.0514 14.5834 11.9853 14.6497 12.2058C15.0029 13.5292 14.2523 14.8525 14.1639 14.9847C16.3936 14.7422 16.4598 13.2204 16.4377 12.9116C16.4377 12.6029 16.0184 11.2575 16.4598 10.8604C16.5703 10.7502 16.6806 10.7723 16.6364 10.9929C16.5924 11.3457 16.8572 11.8972 17.0119 12.272C17.3872 13.2424 16.9456 14.0584 16.5924 14.4556C16.8351 14.3453 18.6233 13.5954 18.2921 12.0074C18.2261 11.6767 17.7845 10.9929 17.7845 10.2651C17.7845 9.9122 18.0273 9.49307 18.1377 9.40499C18.27 9.31671 18.3585 9.38278 18.3142 9.51527C18.2921 9.69163 18.2261 10.3313 18.5351 10.7943C18.6233 10.9268 18.9546 11.412 18.9765 12.3161C20.1687 10.7062 19.6168 9.69163 19.3518 9.31671C18.4467 7.97131 18.8441 7.08917 18.9325 6.89061C18.9986 6.73619 19.1752 6.69225 19.1973 6.84667C19.2415 7.02303 19.1752 8.03738 19.9921 8.96392C20.235 9.29471 20.1908 9.69163 20.2129 9.86799C21.6919 6.91275 20.0804 4.22194 19.4401 3.33981C19.3518 3.20759 19.2415 3.05316 19.0428 2.78846C19.6831 2.25911 20.0363 1.5314 19.661 1.17841C19.3078 0.825628 18.5351 1.15641 17.9831 1.5092C17.8507 1.39891 17.7403 1.2887 17.6299 1.24449C17.5857 1.20062 17.6962 1.26669 17.5857 1.20062C17.5857 1.20062 18.204 0.362357 17.6299 0.0757143C16.9677 -0.255069 16.2171 0.605128 16.2171 0.605128C15.2014 0.318217 13.7665 0.274076 12.2654 1.26669C11.9343 1.48726 11.6474 1.57534 11.4927 1.64168C11.3823 1.66362 11.0953 1.81804 11.0953 2.25911C11.0953 2.34739 11.1174 2.39133 11.2498 2.36939C11.603 2.25911 11.8901 2.08275 12.133 1.9944C12.3538 1.88419 12.5744 2.03861 12.3317 2.19297C12.0006 2.39133 11.6692 2.58989 11.5148 2.78846C11.4264 2.89874 11.0512 3.36181 11.603 4.08972C11.7575 3.82501 12.3096 3.16345 13.0822 3.27373C13.6562 3.31787 14.3186 3.80288 14.5171 4.57493C13.3692 4.33222 12.751 4.26615 11.6474 4.55279C10.7642 4.79549 10.0798 4.75135 9.21876 4.31029C9.39549 4.83963 10.1459 5.96427 12.0006 5.17042C13.303 4.59693 14.6055 5.19242 14.6055 5.19242C14.6055 5.2807 14.6055 5.34684 14.5834 5.43512C14.5171 6.05262 13.877 6.78033 13.016 6.40534C12.707 6.27312 12.5081 6.05262 12.3317 5.47906C12.1549 5.58935 11.8901 5.94233 12.1109 6.3834C12.133 6.47168 12.133 6.53782 12.0227 6.6039C11.9343 6.67004 11.868 6.80246 11.9564 6.95689C12.6186 8.14766 14.8703 7.61852 15.2456 5.89819C15.2898 5.80985 15.4002 5.78791 15.4002 5.96427C15.334 8.16987 12.7731 9.2725 10.9628 7.37582C10.7642 7.15525 10.5654 7.15525 10.2564 7.22139C9.94738 7.30967 8.93184 7.53024 8.24753 7.41996C8.22544 7.83909 8.26949 8.98586 9.99156 9.40499ZM14.0756 2.30325C13.9873 1.9944 13.7445 1.57534 13.5459 1.39891C14.4508 1.00199 15.5106 1.17841 15.7314 1.37698C14.8703 1.55334 14.3627 1.95026 14.0756 2.30325Z" fill="#A04044"/>
<path d="M1.80111 6.60389C1.80111 6.60389 1.80111 6.60389 1.80111 6.62589C1.75707 6.71417 1.75707 6.80245 1.75707 6.8906C1.4921 7.02302 0.587015 7.41995 1.20511 8.34622C1.07263 7.79487 1.75707 7.61851 1.95569 7.59631C1.9336 7.70659 1.95569 7.83908 1.97785 7.9713C1.71288 8.23594 1.18309 9.05199 2.08817 9.51526C1.80111 9.03006 2.28686 8.76535 2.37509 8.69921C3.4128 9.7799 4.03089 8.12572 5.15682 9.05199C5.24512 9.11814 5.31126 9.18441 5.37754 9.27249C6.19439 10.3313 7.09948 10.6179 8.0709 11.0812C7.47483 10.6179 7.34235 9.66969 7.29823 9.14027C7.60732 9.2947 8.11509 9.44892 8.73312 9.42692C7.85012 8.89757 7.69555 8.214 7.58516 7.26552C7.05543 7.1111 6.68007 7.06716 5.70871 6.40533C5.68662 6.40533 5.68662 6.40533 5.68662 6.40533C5.13473 5.94232 4.36206 5.03799 3.63358 4.99385C3.52319 4.99385 3.43482 4.99385 3.34652 5.01598C2.90502 4.81742 1.9336 4.4647 1.62458 5.56733C1.97785 5.17041 2.41934 5.39097 2.57385 5.47905C2.48548 5.61147 2.41934 5.74376 2.39718 5.87618C1.5804 5.7879 0.785706 6.07454 0.785706 6.8906C0.940213 6.69224 1.24929 6.42753 1.80111 6.60389Z" fill="#A04044"/>
<path d="M4.85593 26.0611V26.849L6.10606 26.3046V29.8719H7.03566V25.3246H6.49071L4.85593 26.0611Z" fill="#A04044"/>
<path d="M11.6516 27.5022C12.1003 27.278 12.4209 26.9258 12.4209 26.4454C12.4209 25.7088 11.8117 25.3246 10.8823 25.3246C10.0168 25.3246 9.24749 25.7409 9.24749 26.5735C9.24749 27.1819 9.63221 27.4701 10.0168 27.6943C9.53603 27.9185 9.15131 28.2387 9.15131 28.7831C9.15131 29.6157 9.8565 30 10.8502 30C11.8117 30 12.5812 29.5196 12.5812 28.687C12.5812 27.9825 12.1644 27.7263 11.6516 27.5022ZM10.8823 25.9651C11.363 25.9651 11.6836 26.1892 11.6836 26.5735C11.6836 26.7656 11.4913 27.0538 11.1388 27.278L10.6579 27.0859C10.4014 26.9898 10.0808 26.8297 10.0808 26.5095C10.0808 26.1252 10.4334 25.9651 10.8823 25.9651ZM10.8502 29.3275C10.4014 29.3275 9.95268 29.1994 9.95268 28.687C9.95268 28.3988 10.177 28.0786 10.5296 27.9185L10.9785 28.0466C11.331 28.2067 11.7478 28.3668 11.7478 28.7191C11.7478 29.1674 11.363 29.3275 10.8502 29.3275Z" fill="#A04044"/>
<path d="M20.7551 26.9898H20.5306V26.1572H22.5822V25.4206H19.7934V27.6943H20.6909C21.6525 27.6943 21.9731 27.9505 21.9731 28.4949C21.9731 29.0393 21.5883 29.2955 21.0436 29.2955C20.4986 29.2955 20.0818 29.1354 19.7613 28.8472L19.5049 29.5517C19.9215 29.8719 20.4986 30 21.0115 30C21.9731 30 22.8706 29.4876 22.8706 28.4629C22.8706 27.3741 22.1013 26.9898 20.7551 26.9898Z" fill="#A04044"/>
<path d="M16.0431 25.3566C14.9532 25.3566 14.1519 26.0291 14.1519 27.6943C14.1519 29.2955 14.9532 30 16.0431 30C17.1008 30 17.9342 29.2955 17.9342 27.6943C17.9342 26.0291 17.1008 25.3566 16.0431 25.3566ZM16.0431 29.3275C15.3699 29.3275 15.0813 28.655 15.0813 27.6943C15.0813 26.6695 15.3699 26.0291 16.0431 26.0291C16.684 26.0291 17.0046 26.6695 17.0046 27.6943C17.0046 28.655 16.684 29.3275 16.0431 29.3275Z" fill="#A04044"/>
</svg>
