<svg width="135" height="30" viewBox="0 0 135 30" fill="none" xmlns="http://www.w3.org/2000/svg">
<path d="M81.16 4.97046C80.9388 6.06304 80.8282 8.98401 80.8282 10.2994H81.5803C82.3324 7.15556 82.7306 6.21906 86.6241 6.19689H87.7302V20.2212C87.6638 22.4509 87.0666 22.5401 85.6287 22.8075L84.3234 23.0529V23.9224H94.0351V23.0529L92.7519 22.8075C91.3141 22.5401 90.6944 22.4509 90.6282 20.2212V6.19689H91.7565C95.6498 6.21906 96.0259 7.15556 96.7782 10.2994H97.5301C97.5301 8.98401 97.4416 6.06304 97.2206 4.97046H81.16Z" fill="#3E3E3E"/>
<path d="M54.5817 20.2212V8.58248C54.6703 6.39738 55.1569 6.37521 56.5726 6.08542L57.6787 5.84004V4.97046H48.5203V5.84004L49.7148 6.08542C51.1085 6.37521 51.6837 6.39738 51.6837 8.58248V20.2212C51.6837 22.4063 51.1085 22.5178 49.7148 22.8075L48.5203 23.0529V23.9224H57.7451V23.0529L56.5726 22.8075C55.1569 22.5178 54.6703 22.4063 54.5817 20.2212Z" fill="#3E3E3E"/>
<path d="M38.5217 4.97046H30.5357V5.84004L31.7302 6.10766C33.1018 6.37521 33.6991 6.62032 33.6991 8.78325V20.355C33.6991 22.4955 33.1018 22.5178 31.7302 22.8075L30.5357 23.0529V23.9224H40.2692V23.0529L38.9862 22.8075C37.2385 22.4732 36.597 22.5178 36.597 20.355V16.1411C37.2828 16.2525 38.1897 16.3417 39.0305 16.3417C42.6584 16.3417 46.22 14.5357 46.22 10.3885C46.22 6.53136 43.0123 4.97046 38.5217 4.97046ZM38.3889 15.1377H36.597V6.21906H38.3225C42.0389 6.24143 43.3442 8.02507 43.3442 10.5C43.3442 13.2202 41.6851 15.1377 38.3889 15.1377Z" fill="#3E3E3E"/>
<path d="M110.007 22.5846H108.304C106.445 22.5846 106.246 22.4285 106.158 20.2436V14.8255H108.436C111.002 14.8255 111.025 15.1375 111.356 16.6538L111.533 17.4118H112.263V11.2803H111.533L111.356 12.0162C111.069 13.2871 111.025 13.5546 108.436 13.5546H106.158V6.19682H109.144C113.037 6.19682 113.746 7.02185 114.498 10.2993H115.228C115.228 8.98381 115.117 6.06304 114.918 4.97046H100.096V5.84004L101.291 6.08542C102.663 6.35277 103.282 6.39738 103.282 8.58248V20.2212C103.282 22.2948 102.663 22.5177 101.291 22.8076L100.096 23.0529V23.9226H114.608C115.405 22.6292 116.422 19.5299 116.688 18.2146H115.958C114.365 21.0686 113.458 22.5846 110.007 22.5846Z" fill="#3E3E3E"/>
<path d="M134.132 4.97046H118.072C117.851 6.06304 117.74 8.98401 117.74 10.2994H118.492C119.244 7.15556 119.643 6.21906 123.536 6.19689H124.664V20.2212C124.576 22.4509 123.978 22.5401 122.54 22.8075L121.235 23.0529V23.9224H130.969V23.0529L129.664 22.8075C128.226 22.5401 127.629 22.4509 127.54 20.2212V6.19689H128.668C132.562 6.21906 132.96 7.15556 133.712 10.2994H134.464C134.464 8.98401 134.354 6.06304 134.132 4.97046Z" fill="#3E3E3E"/>
<path d="M70.9524 23.0528C67.5233 23.0528 64.4042 19.9982 64.4042 14.2013C64.4042 8.73861 67.2801 5.77316 70.9524 5.77316C74.2485 5.77316 75.2218 7.73532 76.0625 10.2994H76.9028C76.9028 9.27371 76.7924 6.9326 76.6377 5.72854C75.3989 5.19337 73.2086 4.54694 70.9524 4.54694C65.8421 4.54694 61.108 7.82441 61.108 14.3349C61.108 21.1354 65.444 24.3684 70.8417 24.3684C73.1644 24.3684 75.1997 23.744 76.0402 23.2981C76.5271 22.3616 77.2348 19.976 77.434 18.2146H76.5933C75.5977 20.8678 73.8723 23.0528 70.9524 23.0528Z" fill="#3E3E3E"/>
</svg>
